<?xml version="1.0" encoding="UTF-8" standalone="no"?>
<!-- Created with Inkscape (http://www.inkscape.org/) -->

<svg
   xmlns:dc="http://purl.org/dc/elements/1.1/"
   xmlns:cc="http://creativecommons.org/ns#"
   xmlns:rdf="http://www.w3.org/1999/02/22-rdf-syntax-ns#"
   xmlns:svg="http://www.w3.org/2000/svg"
   xmlns="http://www.w3.org/2000/svg"
   xmlns:sodipodi="http://sodipodi.sourceforge.net/DTD/sodipodi-0.dtd"
   xmlns:inkscape="http://www.inkscape.org/namespaces/inkscape"
   id="svg2"
   version="1.1"
   inkscape:version="0.91 r13725"
   width="793.69208"
   height="194.01826"
   sodipodi:docname="frantic.svg"
   inkscape:export-filename="/home/frantic/Media/workspace/text mixing/frantic/frantice.png"
   inkscape:export-xdpi="360"
   inkscape:export-ydpi="360">
  <metadata
     id="metadata8">
    <rdf:RDF>
      <cc:Work
         rdf:about="">
        <dc:format>image/svg+xml</dc:format>
        <dc:type
           rdf:resource="http://purl.org/dc/dcmitype/StillImage" />
        <dc:title></dc:title>
      </cc:Work>
    </rdf:RDF>
  </metadata>
  <defs
     id="defs6" />
  <sodipodi:namedview
     pagecolor="#ffffff"
     bordercolor="#666666"
     borderopacity="1"
     objecttolerance="10"
     gridtolerance="10"
     guidetolerance="10"
     inkscape:pageopacity="0"
     inkscape:pageshadow="2"
     inkscape:window-width="1366"
     inkscape:window-height="745"
     id="namedview4"
     showgrid="false"
     inkscape:zoom="1"
     inkscape:cx="490.31288"
     inkscape:cy="118.71155"
     inkscape:window-x="1920"
     inkscape:window-y="432"
     inkscape:window-maximized="1"
     inkscape:current-layer="svg2"
     fit-margin-top="0"
     fit-margin-left="0"
     fit-margin-right="0"
     fit-margin-bottom="0" />
  <path
     style="opacity:0;fill:none;stroke:#000000;stroke-width:1px;stroke-linecap:butt;stroke-linejoin:miter;stroke-opacity:1"
     d="m 6,131.01827 c 0.3849065,-0.22223 787.69196,0 787.69196,0"
     id="path4934"
     inkscape:connector-curvature="0"
     sodipodi:nodetypes="cc" />
  <g
     id="g4925"
     style="fill:#000000;fill-opacity:1"
     transform="translate(-23.03125,-22.887979)">
    <path
       id="path2989"
       d="m 128,36.53125 c 0,0 -37.78125,24.125416 -37.78125,26.96875 -2.648314,8.546678 -5.151414,17.141129 -7.625,25.71875 C 69.117054,93.201875 54.125,97.625 54.125,97.625 c 0,0 -1.125001,2.56345 -1.125,2.65625 1.599691,-0.862812 14.567049,-5.12335 29.21875,-9.8125 -13.666838,47.4247 -26.651275,94.00246 -59.1875,126.4375 30.821637,-17.45321 47.53125,-70.6875 47.53125,-70.6875 L 90.25,87.90625 C 109.15285,81.897991 128.125,76 128.125,76 c 0.01,-0.179209 -18.76944,5.313841 -37.53125,10.84375 L 100.84375,56.5 c 0,0 7.99758,-5.779638 15.875,-11.03125 9.32161,0.393871 3.15016,17.981129 2.625,18.375 C 124.72665,57.279236 128,36.53125 128,36.53125 Z"
       style="fill:#000000;fill-opacity:1;stroke:none"
       inkscape:connector-curvature="0" />
    <path
       sodipodi:nodetypes="cccccccccsc"
       inkscape:connector-curvature="0"
       id="path3781"
       d="M 120.5533,158.42158 126.25,149.5 l 4.98439,-28.38084 c 3.70666,-9.95666 28.11724,-35.842107 29.27885,-35.693058 1.74227,1.426868 1.8351,9.914617 1.07323,12.722088 0,0 4.44974,-6.226847 2.43718,-17.162953 -1.66054,0.107233 -3.68719,-0.508883 -31.79468,35.553563 0.7071,0 3.88908,-32.880466 7.24784,-35.178563 -0.17677,-0.176777 -2.69302,0.248476 -15.37957,11.136931 0.35355,0 8.13173,-3.535534 7.77818,-1.59099 -0.35356,1.944544 -11.32212,67.515402 -11.32212,67.515402 z"
       style="fill:#000000;fill-opacity:1;stroke:none" />
    <path
       sodipodi:nodetypes="cccsccccccscsccccs"
       inkscape:connector-curvature="0"
       id="path3783"
       d="m 228.73347,81.5625 c 0,0 -4.56308,0.929629 -12.69481,13.657551 0,0 -5.68878,-2.241052 -10.27394,-7.970051 0,0 -6.72091,-2.488041 -13.96875,4.40625 -7.24785,6.894291 -15.18322,19.24603 -17.30454,29.3223 -1.06066,10.07627 -3.2025,35.7304 -3.2025,35.7304 0,0 17.34654,-15.04999 38.91329,-49.52145 -0.26517,3.80071 -0.1875,3.90625 -0.1875,3.90625 0,0 -4.7883,37.28708 -4.7883,45.94914 1.50184,-0.73744 14.57662,1.9301 39.06863,-39.40012 -0.17677,0 -19.88309,31.28011 -31.0331,31.8315 -3.11681,0.15413 1.84545,-56.186931 15.47152,-67.91177 z m -27.65625,11.375 c 5.91506,0.41401 12.25,3.765625 12.6875,5.1875 -20.875,36.25 -34.67049,45.08579 -37.06954,45.14645 l 3.35875,-23.0429 c 0.125,-18.5 13.33579,-26.35355 17.33579,-27.35355 0.92921,-0.209516 2.7465,-0.0034 3.6875,0.0625 z"
       style="fill:#000000;fill-opacity:1;stroke:none" />
    <path
       sodipodi:nodetypes="cccccccccccsc"
       inkscape:connector-curvature="0"
       id="path4902"
       d="m 252.23001,157.15975 c 3.53553,-33.76435 5.81131,-42.28838 8.15383,-64.578737 -0.025,0 -0.0552,-1.093806 -7.00478,5.004987 0.26517,-0.0884 9.18611,-9.692385 12.54487,-18.884773 -0.26517,0.441942 1.85615,1.679379 1.85615,1.679379 l -6.35768,53.444624 c 11.84404,-14.31892 21.92031,-47.022605 42.77996,-54.447226 -0.35355,0.176777 -5.47533,30.993316 -6.22533,66.493316 4.66053,-0.73744 6.90533,2.37868 30.03033,-26.87132 0,0 -18.375,30.125 -38,37.5 0.5,-1.25 2.17422,-56.96945 7.65426,-70.227705 -9.36916,2.651651 -23.86485,31.289475 -34.825,51.618795 -9.79257,18.16365 -10.60661,19.26866 -10.60661,19.26866 z"
       style="fill:#000000;fill-opacity:1;stroke:none" />
    <path
       sodipodi:nodetypes="cccccccccccccc"
       inkscape:connector-curvature="0"
       id="path4908"
       d="m 350.01164,61.28125 c -2.65166,4.154253 -7.6738,11.92741 -7.625,12 0.0488,0.07259 1.8125,0.46875 1.8125,0.46875 -0.50524,3.186339 -1.01165,7.328145 -1.5,11.9375 -2.59843,1.287091 -5.20481,2.593697 -7.78125,3.96875 l -0.78125,1.90625 c 2.79939,-1.644765 5.61417,-3.205645 8.4375,-4.71875 -2.76504,26.72144 -5.0625,70.21875 -5.0625,70.21875 7.58478,-1.94591 20.61238,-7.6529 39.34375,-39.53125 -23.4375,30.9375 -30.82583,30.68658 -32.9375,30.34375 0,0 2.79957,-39.45156 4.53125,-64.09375 8.46451,-4.334123 16.97756,-8.359498 25.4375,-12.71875 -8.43197,4.026026 -16.93993,7.798874 -25.375,11.8125 0.56773,-8.083436 1.51187,-21.612336 1.5,-21.59375 z"
       style="fill:#000000;fill-opacity:1;stroke:none" />
    <path
       id="path4913"
       d="m 413.46875,47.789214 c -2.14894,0.03315 -6.79873,4.892952 -16.875,24.25 l 1.5,-1.375 c 0,0 14.72557,-31.339058 17.15625,-18.125 0,0 0.36769,-4.783146 -1.78125,-4.75 z m -14.71875,33.125 c 0,0 -1.12202,1.622633 -1.6875,2.4375 -8.5776,4.272185 -15.65993,7.237028 -26.28125,13.3125 L 370,98.382964 c 9.20045,-5.848231 18.01638,-10.064971 27,-14.9375 -2.12534,3.062291 -6.186,8.886792 -6.3125,8.90625 l -4.96875,7.125 c 0,0 3.79257,-4.855934 4.625,-4.84375 -3.72791,24.862636 -5.625,64.062496 -5.625,64.062496 9.56947,-2.36211 17.30542,-9.61688 32.78125,-31.78125 -19.69499,22.44759 -23.1348,23.2803 -26.03125,23.25 0.90165,-21.71447 1.09243,-24.66917 2.46875,-43.6875 1.37633,-19.018329 4.8125,-25.562496 4.8125,-25.562496 z"
       style="fill:#000000;fill-opacity:1;stroke:none"
       inkscape:connector-curvature="0" />
    <path
       sodipodi:nodetypes="ccscscscccccccc"
       inkscape:connector-curvature="0"
       id="path4923"
       d="m 426.39277,157.02145 c 0,0 18.31434,-8.02145 35.81434,-25.52145 4.5,-5.75 8.61226,-12.33339 10,-16.25 1.00263,-2.82971 2.5,-11.25 2.5,-11.25 0,0 -2.73223,9.9519 -3.48223,11.2019 -0.75,1.25 -6.17418,14.64277 -21.14277,24.9231 -3.07322,2.82583 -9.43566,5.1276 -11.55438,5.09727 -1.58098,-0.0226 -3.21967,-0.21966 -3.21967,-0.21966 -2.48846,-4.97692 -0.6468,-49.726626 2.89905,-56.12761 4.25,-4.25 9.3125,-7.312499 9.3125,-7.312499 0,0 8.5,6.187499 3.5,18.687499 2.0625,-2.0625 3.625,-5.375 3.625,-5.375 0.20028,-10.807388 -0.52108,-14.573487 -2.25,-19.562499 0,0 -24.40782,17.334596 -24.40782,20.584596 2.22189,0 -2.29114,36.322203 -1.59402,61.124353 z"
       style="fill:#000000;fill-opacity:1;stroke:none" />
  </g>
  <g
     id="g5046"
     transform="matrix(0.64883793,0,0,0.64883793,126.32402,45.167118)">
    <path
       sodipodi:nodetypes="ccccccccccc"
       inkscape:connector-curvature="0"
       id="path4940"
       d="m 611.4597,-39.234676 c -4.56037,3.569554 -9.28039,6.935146 -13.98546,10.313207 -2.19088,1.704103 -4.53318,5.42892 -6.67706,9.669805 -10.80202,17.6215107 -17.72852,37.237439 -26.8429,55.731698 -11.67867,26.13986 -24.87824,51.558516 -37.02593,77.478496 -5.19,10.15913 -11.64202,23.16754 -18.37187,32.43629 0,0 7.71301,-5.72369 8.17269,-5.69795 1.80805,-1.17563 9.40162,-15.2757 13.11902,-23.34363 12.2099,-32.171665 27.81107,-62.888049 42.86956,-93.779156 9.61334,-19.7727145 19.03564,-40.150623 33.41201,-56.970868 1.67237,-1.637395 4.72154,-4.293372 5.32994,-5.837892 z"
       style="fill:#000000;fill-opacity:1;stroke:none" />
    <path
       sodipodi:nodetypes="cccccccccccccccccccccccc"
       inkscape:connector-curvature="0"
       id="path4954"
       d="m 815.63777,7.3165517 c -4.88542,2.8229173 -9.77083,5.6458333 -14.65625,8.4687503 -0.73232,10.168713 -5.62879,19.588294 -9.30087,28.974719 -13.37498,28.012602 -30.96695,54.652875 -54.56817,75.087889 -3.82259,4.00515 -16.15967,7.87077 -17.02378,10.60883 22.59476,-2.60068 45.34506,-0.11599 67.96834,0.82188 4.47039,0.83961 12.12559,-1.06569 8.02229,5.65687 -9.06098,20.70725 -19.53594,40.74721 -29.47281,61.03731 2.90625,-1.6875 5.8125,-3.375 8.71875,-5.0625 5.78904,-20.97952 14.24736,-41.12967 23.18745,-60.9375 12.03056,0.57098 25.29587,0.96812 35.47025,-6.46645 3.0268,-1.60255 3.12462,-1.89302 6.73865,-3.95408 1.07053,-0.74235 -5.59664,3.50115 -7.40597,3.87212 -10.68946,4.07489 -22.35377,4.27916 -33.64668,3.92341 14.86178,-33.475469 30.26354,-66.750233 47.45697,-99.09722 4.32084,-7.239144 8.54352,-14.81103 14.82428,-20.5590283 -4.88542,2.8229173 -9.77083,5.6458333 -14.65625,8.4687503 -6.90632,8.125704 -8.99341,19.033401 -13.33691,28.567065 -7.88625,20.536486 -15.72336,41.092523 -24.9319,61.086773 -2.93253,5.88974 -6.31642,17.02285 -11.31447,21.47617 -20.32078,-0.97665 -40.35469,-4.81386 -60.58785,-6.75573 0.38229,-1.83646 6.95359,-5.63911 8.38993,-7.28053 13.68878,-11.81048 23.68362,-27.208341 33.48411,-42.236418 13.10865,-21.391362 24.38096,-43.84132 36.64089,-65.7010803 z"
       style="fill:#000000;fill-opacity:1;stroke:none" />
    <path
       inkscape:connector-curvature="0"
       id="path4958"
       d="m 680.57527,-3.707813 c -24.92678,26.394096 -47.74146,56.227083 -58.71432,91.29262 -2.98019,10.839984 -6.03599,23.905873 1.09484,33.803573 6.78312,9.41304 19.90239,10.04002 30.26118,7.46618 21.02214,-4.59306 40.17359,-16.71547 54.11323,-33.000801 12.19312,-15.091713 16.62408,-36.052521 11.07695,-54.710486 -8.03654,-25.367498 -29.80059,-45.8734696 -55.39956,-52.939632 -7.05493,-2.129192 -16.67289,-2.400251 -22.46539,-0.332423 5.14719,-2.52287 9.74294,-7.170509 15.91019,-6.405136 11.63668,1.443507 22.37004,7.237726 31.82084,13.9388354 15.91841,12.2298637 29.43292,28.5830526 35.402,47.9697886 4.77006,21.515094 -4.15462,44.813831 -20.81381,58.904414 -13.98579,12.25097 -30.49791,21.64486 -47.93594,28.01208 -11.21405,3.3649 -23.67139,6.95719 -35.15295,3.01963 -9.14561,-3.18618 -11.9889,-14.41748 -9.60822,-22.9596 4.92224,-19.002348 13.55502,-36.852298 22.91835,-54.031419 9.23294,-16.788851 19.75752,-32.826402 31.01496,-48.3169339 0.89126,-3.3231377 3.9435,-4.4653759 6.64856,-6.0358596 3.27636,-1.89161015 6.55273,-3.7832203 9.82909,-5.6748305 z"
       style="fill:#000000;fill-opacity:1;stroke:none" />
    <path
       sodipodi:nodetypes="ccccccccccccccczccccccccccccccc"
       inkscape:connector-curvature="0"
       id="path5038"
       d="m 949.08152,93.947076 c 13.11178,-18.98736 20.9823,-41.100027 27.00816,-63.214926 3.9728,-18.280246 7.9259,-37.0393893 6.4261,-55.830428 -1.4419,-16.687691 -10.84969,-33.896359 -27.4226,-39.584198 -8.24133,-2.898532 -18.14396,-2.691526 -25.41868,2.493704 -6.206,7.537419 -12.35243,15.550908 -13.96931,25.487451 -3.81697,19.550462 1.0686,40.3139191 11.73012,57.006269 14.56486,23.722885 36.10746,41.862739 56.31057,60.580405 6.9474,6.892926 16.35152,12.873877 18.93592,22.783457 1.4528,9.65913 -8.69562,15.0294 -15.77452,19.21994 -13.11933,7.92613 -28.82176,9.8931 -43.82347,10.97388 -19.44895,0.28773 -39.61114,-1.6975 -57.4148,-9.98112 -8.9946,-3.77893 -15.41542,-13.45556 -13.32295,-23.32097 3.51692,-18.867644 17.81826,-33.670724 32.80788,-44.596369 6.04248,-3.231555 11.82736,-7.837217 18.57085,-9.269258 -1.17396,1.009688 -5.539,3.14278 -7.2133,3.931595 -1.6743,0.788815 -4.55649,1.789114 -4.72873,1.83476 3.6725,-2.007753 1.54405,-1.280439 1.54405,-1.280439 -15.43921,10.12074 -30.93814,24.040461 -34.4749,43.007328 -2.23873,11.911103 4.23711,24.237313 14.82828,29.806263 17.49518,10.30342 38.96009,10.97026 58.63739,8.60954 12.18728,-2.24278 24.9815,-4.49742 35.6889,-10.94051 9.7127,-7.17365 7.6158,-21.2648 1.6333,-30.169732 -10.179,-17.07229 -27.19198,-28.184972 -40.24748,-42.79622 -17.34055,-18.018399 -32.73963,-39.9490974 -36.23432,-65.242243 -2.13667,-16.028447 0.90069,-35.187507 15.39144,-44.757169 6.59239,-4.700957 14.20607,-9.175437 22.58965,-8.166894 14.44962,0.318127 26.69931,12.290207 29.09091,26.267258 6.8508,27.212853 0.3453,55.2171 -5.6784,81.933701 -3.12036,15.864794 -8.88113,31.141156 -11.41963,47.102905 -4.68348,2.704007 -9.36695,5.408013 -14.05043,8.11202 z"
       style="fill:#000000;fill-opacity:1;stroke:none" />
  </g>
</svg>
